<mxfile host="app.diagrams.net" modified="2023-10-30T07:20:44.676Z" agent="Mozilla/5.0 (Windows NT 10.0; Win64; x64) AppleWebKit/537.36 (KHTML, like Gecko) Chrome/118.0.0.0 Safari/537.36" version="22.0.8" etag="hYTOucszlsHfWNXG3wAw" type="github">
  <diagram name="1 oldal" id="0oD-sWrPXEM3QKmPcUV2">
    <mxGraphModel>
      <root>
        <mxCell id="0" />
        <mxCell id="1" parent="0" />
      </root>
    </mxGraphModel>
  </diagram>
</mxfile>
